<svg width="64" height="64" viewBox="0 0 64 64" fill="none" xmlns="http://www.w3.org/2000/svg">
	<rect width="64" height="64" rx="18" fill="#020617"></rect>
	<rect x="1" y="1" width="62" height="62" rx="17" stroke="#38BDF8" stroke-opacity="0.55" stroke-width="2"></rect>
	<path d="M18.5 39.2C16.8 37.4 16 35 16 32C16 29 16.8 26.6 18.5 24.8C20.2 23 22.5 22.1 25.4 22.1C27.2 22.1 28.8 22.5 30.2 23.2C31.6 23.9 32.7 24.9 33.5 26.2L30.2 28.8C29 27.1 27.5 26.2 25.6 26.2C24.1 26.2 22.9 26.7 22 27.7C21.1 28.7 20.7 30.1 20.7 32C20.7 33.9 21.1 35.3 22 36.3C22.9 37.3 24.1 37.8 25.6 37.8C27.5 37.8 29 36.9 30.2 35.2L33.5 37.8C32.7 39.1 31.6 40.1 30.2 40.8C28.8 41.5 27.2 41.9 25.4 41.9C22.5 41.9 20.2 41 18.5 39.2Z" fill="#F8FAFC"></path>
	<path d="M36.3 22.5H40.9V30.2L47.7 22.5H53.2L45.8 30.8L53.7 41.5H48.1L42.7 34.2L40.9 36.2V41.5H36.3V22.5Z" fill="#38BDF8"></path>
</svg>